:SAMPLES-PER-SECOND 30
:FULLY-SPECIFIED
:DEGREES
322
root  -17.5876 34.5072 -14.7531 -170.207 0.661621 179.109
RightUpLeg  -8.96659 -17.5583 -2.56624
RightLeg  6.6746 -2.60578 -0.134784
RightFoot  4.10407 0.0192173 -0.0456728
RightToes  -29.0869 -0.135324 -0.244342
Spine  -2.71883 -0.20942 0.0700185
Spine1  -5.47169 -0.473878 0.723854
HEad  -62.9251 -0.321825 8.13414
LeftShoulder1  -1.94126e-019 -3.10601e-018 -2.51263e-017
LeftArm  -26.4359 29.3285 -80.0083
LeftForeArm  22.4563 -11.0162 -1.91753
LeftHand  -0.465059 0.435462 10.8708
RightShoulder  -4.96962e-017 0 -2.36833e-017
RightArm  -51.3597 -26.2279 73.7908
RightForeArm  53.9221 7.66665 1.3262
RightHand  0.113089 -6.27758 -16.7652
LeftUpLeg  -8.18389 0.672288 2.39548
LeftLeg  6.47449 12.512 0.604581
LeftFoot  4.11298 -0.00427168 1.01159
LeftToes  -21.967 1.7763e-006 6.54387e-008
323
root  -17.5772 34.5079 -14.7631 -170.191 0.61084 179.111
RightUpLeg  -8.96286 -17.5813 -2.54622
RightLeg  6.68613 -2.6255 -0.13634
RightFoot  4.07968 0.0193955 -0.0455663
RightToes  -29.1136 -0.135191 -0.244115
Spine  -2.72019 -0.215696 0.0566196
Spine1  -5.47822 -0.48651 0.697263
HEad  -62.9562 -0.303081 8.1102
LeftShoulder1  -1.94126e-019 -3.10601e-018 -2.51263e-017
LeftArm  -26.4155 29.295 -79.9665
LeftForeArm  22.3471 -11.0424 -1.92179
LeftHand  -0.462981 0.465164 10.9334
RightShoulder  -4.96962e-017 0 -2.36833e-017
RightArm  -51.394 -26.208 73.7478
RightForeArm  54.001 7.66312 1.3257
RightHand  0.117951 -6.30752 -16.8297
LeftUpLeg  -8.1821 0.639592 2.42033
LeftLeg  6.45301 12.512 0.59992
LeftFoot  4.12131 -0.00435316 1.01407
LeftToes  -21.9679 1.7763e-006 6.54387e-008
324
root  -17.5649 34.5087 -14.7737 -170.181 0.575104 179.114
RightUpLeg  -8.93801 -17.5908 -2.52402
RightLeg  6.66653 -2.64985 -0.137875
RightFoot  4.05895 0.0195727 -0.04555
RightToes  -29.0701 -0.135072 -0.243897
Spine  -2.72156 -0.215856 0.0387711
Spine1  -5.47934 -0.4782 0.662172
HEad  -62.917 -0.361469 8.13676
LeftShoulder1  -1.94126e-019 -3.10601e-018 -2.51263e-017
LeftArm  -26.4006 29.2568 -79.9148
LeftForeArm  22.3905 -11.0892 -1.92883
LeftHand  -0.464064 0.417042 10.9081
RightShoulder  -4.96962e-017 0 -2.36833e-017
RightArm  -51.4057 -26.1683 73.7402
RightForeArm  54.0229 7.67068 1.32776
RightHand  0.11494 -6.28455 -16.8606
LeftUpLeg  -8.16014 0.618208 2.44579
LeftLeg  6.40846 12.4971 0.589561
LeftFoot  4.14431 -0.00449412 1.01634
LeftToes  -21.9729 1.7763e-006 6.54387e-008
325
root  -17.5514 34.5094 -14.7843 -170.174 0.535858 179.123
RightUpLeg  -8.90301 -17.5896 -2.49532
RightLeg  6.63339 -2.68537 -0.136994
RightFoot  4.03885 0.0197457 -0.0455849
RightToes  -28.968 -0.134969 -0.243687
Spine  -2.72252 -0.213324 0.0187155
Spine1  -5.47805 -0.469411 0.622565
HEad  -62.8085 -0.439204 8.19571
LeftShoulder1  -1.94126e-019 -3.10601e-018 -2.51263e-017
LeftArm  -26.3646 29.2061 -79.846
LeftForeArm  22.3686 -11.1328 -1.93567
LeftHand  -0.463101 0.44589 10.9349
RightShoulder  -4.96962e-017 0 -2.36833e-017
RightArm  -51.4439 -26.0936 73.7666
RightForeArm  54.0569 7.68577 1.32882
RightHand  0.108432 -6.24223 -16.8098
LeftUpLeg  -8.12179 0.596654 2.47785
LeftLeg  6.33906 12.4979 0.574558
LeftFoot  4.16994 -0.00464096 1.01752
LeftToes  -22.0255 1.7763e-006 6.54387e-008
326
root  -17.5382 34.5099 -14.7961 -170.164 0.493378 179.141
RightUpLeg  -8.87984 -17.5697 -2.45824
RightLeg  6.62498 -2.74186 -0.131346
RightFoot  4.02662 0.0199112 -0.0456322
RightToes  -29.0352 -0.134881 -0.243488
Spine  -2.72266 -0.209952 0.00272965
Spine1  -5.47619 -0.467991 0.589365
HEad  -62.6712 -0.552839 8.19102
LeftShoulder1  -1.94126e-019 -3.10601e-018 -2.51263e-017
LeftArm  -26.3037 29.1601 -79.7758
LeftForeArm  22.34 -11.1797 -1.94308
LeftHand  -0.463913 0.465429 10.9067
RightShoulder  -4.96962e-017 0 -2.36833e-017
RightArm  -51.526 -25.9865 73.8087
RightForeArm  54.1505 7.69216 1.32918
RightHand  0.0941896 -6.14294 -16.8043
LeftUpLeg  -8.09375 0.558097 2.52321
LeftLeg  6.28693 12.4817 0.562538
LeftFoot  4.17941 -0.00480528 1.01774
LeftToes  -22.0304 1.7763e-006 6.54387e-008
327
root  -17.5224 34.5103 -14.8076 -170.151 0.480453 179.152
RightUpLeg  -8.85669 -17.5778 -2.42325
RightLeg  6.59544 -2.74895 -0.13164
RightFoot  4.00848 0.0200657 -0.0456532
RightToes  -29.0154 -0.134811 -0.2433
Spine  -2.72087 -0.207595 -0.0114204
Spine1  -5.47379 -0.460961 0.561277
HEad  -62.5339 -0.581048 8.14844
LeftShoulder1  -1.94126e-019 -3.10601e-018 -2.51263e-017
LeftArm  -26.2834 29.1269 -79.7208
LeftForeArm  22.3628 -11.1945 -1.94517
LeftHand  -0.463771 0.438712 10.9121
RightShoulder  -4.96962e-017 0 -2.36833e-017
RightArm  -51.5936 -25.8679 73.8597
RightForeArm  54.2291 7.72614 1.33405
RightHand  0.0859571 -6.08719 -16.7676
LeftUpLeg  -8.06843 0.562116 2.56106
LeftLeg  6.24507 12.4642 0.552715
LeftFoot  4.20349 -0.00503753 1.01775
LeftToes  -22.1304 1.7763e-006 6.54387e-008
328
root  -17.506 34.5108 -14.8195 -170.133 0.476746 179.187
RightUpLeg  -8.83031 -17.5781 -2.35956
RightLeg  6.54497 -2.75403 -0.131521
RightFoot  4.0046 0.020206 -0.0456089
RightToes  -29.0107 -0.13476 -0.243123
Spine  -2.71026 -0.207158 -0.0161048
Spine1  -5.45387 -0.456112 0.550782
HEad  -62.4857 -0.591038 8.03481
LeftShoulder1  -1.94126e-019 -3.10601e-018 -2.51263e-017
LeftArm  -26.2536 29.1118 -79.6811
LeftForeArm  22.3416 -11.3238 -1.9688
LeftHand  -0.462411 0.455367 10.9471
RightShoulder  -4.96962e-017 0 -2.36833e-017
RightArm  -51.6344 -25.7327 73.9196
RightForeArm  54.3273 7.76413 1.33936
RightHand  0.0753436 -6.01067 -16.8133
LeftUpLeg  -8.03905 0.589741 2.62316
LeftLeg  6.1894 12.439 0.53961
LeftFoot  4.20632 -0.00534232 1.01756
LeftToes  -22.1333 1.7763e-006 6.54387e-008
329
root  -17.4888 34.5111 -14.8329 -170.104 0.51741 179.213
RightUpLeg  -8.82205 -17.545 -2.30554
RightLeg  6.503 -2.73881 -0.133661
RightFoot  3.99041 0.0203288 -0.0454605
RightToes  -28.8999 -0.134727 -0.24296
Spine  -2.69126 -0.197345 -0.0170131
Spine1  -5.41701 -0.43208 0.544233
HEad  -62.5106 -0.5639 7.92501
LeftShoulder1  -1.94126e-019 -3.10601e-018 -2.51263e-017
LeftArm  -26.2556 29.0781 -79.6682
LeftForeArm  22.3501 -11.3591 -1.97496
LeftHand  -0.464095 0.437322 10.8899
RightShoulder  -4.96962e-017 0 -2.36833e-017
RightArm  -51.5665 -25.5896 73.9671
RightForeArm  54.3708 7.79926 1.34439
RightHand  0.0683265 -5.96254 -16.7911
LeftUpLeg  -8.02511 0.703518 2.66987
LeftLeg  6.15405 12.3782 0.52942
LeftFoot  4.2141 -0.00572433 1.01721
LeftToes  -22.2057 1.7763e-006 6.54387e-008
330
root  -17.4692 34.5107 -14.8461 -170.069 0.559891 179.249
RightUpLeg  -8.83354 -17.4992 -2.23533
RightLeg  6.48503 -2.74255 -0.132818
RightFoot  3.96891 0.020309 -0.0451778
RightToes  -28.8857 -0.134715 -0.242811
Spine  -2.67251 -0.186683 -0.0160734
Spine1  -5.38056 -0.406256 0.555711
HEad  -62.5472 -0.462978 7.80777
LeftShoulder1  -1.94126e-019 -3.10601e-018 -2.51263e-017
LeftArm  -26.2396 29.0478 -79.6761
LeftForeArm  22.349 -11.3458 -1.97201
LeftHand  -0.464266 0.437068 10.8738
RightShoulder  -4.96962e-017 0 -2.36833e-017
RightArm  -51.4014 -25.4548 73.9905
RightForeArm  54.3192 7.82711 1.34899
RightHand  0.0784406 -6.0339 -16.7798
LeftUpLeg  -8.02021 0.684526 2.73659
LeftLeg  6.1374 12.4388 0.528386
LeftFoot  4.21843 -0.00618819 1.01671
LeftToes  -22.3197 1.7763e-006 6.54387e-008
331
root  -17.4498 34.5089 -14.8608 -170.036 0.609528 179.26
RightUpLeg  -8.84107 -17.4821 -2.19124
RightLeg  6.46478 -2.71854 -0.135726
RightFoot  3.93547 0.0202764 -0.0447125
RightToes  -28.8616 -0.134725 -0.242676
Spine  -2.65759 -0.181048 -0.0135261
Spine1  -5.35133 -0.391874 0.553821
HEad  -62.5844 -0.387769 7.67497
LeftShoulder1  -1.94126e-019 -3.10601e-018 -2.51263e-017
LeftArm  -26.262 29.0192 -79.6866
LeftForeArm  22.3364 -11.2595 -1.95626
LeftHand  -0.464837 0.44173 10.8409
RightShoulder  -4.96962e-017 0 -2.36833e-017
RightArm  -51.2909 -25.3675 74.0061
RightForeArm  54.3232 7.83715 1.35069
RightHand  0.0843486 -6.07586 -16.7687
LeftUpLeg  -8.02213 0.774245 2.77196
LeftLeg  6.13874 12.4051 0.535153
LeftFoot  4.20338 -0.00673855 1.01611
LeftToes  -22.3206 1.7763e-006 6.54387e-008
332
root  -17.4276 34.5068 -14.8779 -169.986 0.661209 179.285
RightUpLeg  -8.85748 -17.4078 -2.12707
RightLeg  6.43993 -2.73626 -0.130356
RightFoot  3.8956 0.0202284 -0.0440259
RightToes  -28.8018 -0.134757 -0.242558
Spine  -2.64075 -0.169061 -0.00784328
Spine1  -5.31774 -0.367121 0.564201
HEad  -62.599 -0.307755 7.601
LeftShoulder1  -1.94126e-019 -3.10601e-018 -2.51263e-017
LeftArm  -26.2834 28.9821 -79.7159
LeftForeArm  22.3536 -11.2017 -1.94649
LeftHand  -0.464366 0.447395 10.836
RightShoulder  -4.96962e-017 0 -2.36833e-017
RightArm  -51.2147 -25.3069 74.002
RightForeArm  54.3347 7.80812 1.34631
RightHand  0.0895048 -6.06857 -16.8267
LeftUpLeg  -8.03151 0.816293 2.829
LeftLeg  6.13395 12.4144 0.534343
LeftFoot  4.17945 -0.00738006 1.01542
LeftToes  -22.378 1.7763e-006 6.54387e-008
